# Blender 3.4.0
# www.blender.org
mtllib phone.mtl
o Cube
v 0.075828 0.627699 -1.132904
v 0.075828 -0.627699 -1.132904
v 0.075828 0.627699 1.132904
v 0.075828 -0.627699 1.132904
v 0.047425 0.627699 -1.132904
v 0.047425 -0.627699 -1.132904
v 0.047425 0.627699 1.132904
v 0.047425 -0.627699 1.132904
v 0.031730 0.645970 -1.219665
v 0.031730 0.675770 -1.165880
v 0.075828 0.644284 -1.162838
v 0.031730 -0.675770 -1.165880
v 0.031730 -0.645970 -1.219665
v 0.075828 -0.644284 -1.162838
v 0.075828 0.644284 1.162838
v 0.031730 0.675770 1.165880
v 0.031730 0.645970 1.219665
v 0.031730 -0.645970 1.219665
v 0.031730 -0.675770 1.165880
v 0.075828 -0.644284 1.162838
v -0.072815 0.645970 -1.219665
v -0.116913 0.645970 -1.165880
v -0.072815 0.675770 -1.165880
v -0.116913 -0.645970 -1.165880
v -0.072815 -0.645970 -1.219665
v -0.072815 -0.675770 -1.165880
v -0.116913 0.645970 1.165880
v -0.072815 0.645970 1.219665
v -0.072815 0.675770 1.165880
v -0.072815 -0.675770 1.165880
v -0.072815 -0.645970 1.219665
v -0.116913 -0.645970 1.165880
vn -0.0000 -1.0000 -0.0000
vn -1.0000 -0.0000 -0.0000
vn -0.0000 -0.0000 1.0000
vn -0.0000 -0.0000 -1.0000
vn -0.0000 1.0000 -0.0000
vn 1.0000 -0.0000 -0.0000
vn 0.5497 0.7307 -0.4049
vn 0.5497 -0.7307 -0.4049
vn 0.5497 0.7307 0.4049
vn 0.5497 -0.7307 0.4049
vn -0.5089 0.7530 -0.4172
vn -0.5089 -0.7530 -0.4172
vn -0.5089 0.7530 0.4172
vn -0.5089 -0.7530 0.4172
vn -0.5599 -0.8286 -0.0000
vn -0.0000 -0.8747 -0.4846
vn 0.7900 -0.0000 -0.6131
vn -0.7733 -0.0000 0.6340
vn 0.7900 -0.0000 0.6131
vn -0.7733 -0.0000 -0.6340
vn -0.0000 0.8747 0.4846
vn 0.5811 0.8138 -0.0000
vn -0.0000 -0.8747 0.4846
vn -0.5599 0.8286 -0.0000
vn -0.0000 0.8747 -0.4846
vn 0.5811 -0.8138 -0.0000
vt 0.616108 0.508892
vt 0.383892 0.508892
vt 0.616108 0.741108
vt 0.383892 0.741108
vt 0.616108 0.508892
vt 0.383892 0.508892
vt 0.616108 0.741108
vt 0.383892 0.741108
vt 0.619488 0.442801
vt 0.682199 0.500000
vt 0.682199 0.505512
vt 0.625000 0.500000
vt 0.317801 0.505512
vt 0.317801 0.500000
vt 0.380512 0.442801
vt 0.375000 0.500000
vt 0.625000 0.750000
vt 0.682199 0.744488
vt 0.619488 0.807199
vt 0.682199 0.750000
vt 0.380512 0.807199
vt 0.317801 0.750000
vt 0.317801 0.744488
vt 0.375000 0.750000
vt 0.619488 0.307199
vt 0.817801 0.500000
vt 0.619488 0.244488
vt 0.875000 0.505512
vt 0.817801 0.505512
vt 0.125000 0.505512
vt 0.380512 0.244488
vt 0.182199 0.500000
vt 0.380512 0.307199
vt 0.182199 0.505512
vt 0.619488 0.005512
vt 0.619488 1.000000
vt 0.875000 0.744488
vt 0.619488 0.942801
vt 0.817801 0.750000
vt 0.817801 0.744488
vt 0.182199 0.744488
vt 0.380512 0.942801
vt 0.182199 0.750000
vt 0.380512 0.005512
vt 0.125000 0.744488
vt 0.380512 1.000000
s 0
usemtl Material
f 26/34/1 12/13/1 19/23/1 30/41/1
f 32/44/2 27/35/2 22/27/2 24/31/2
f 18/21/3 17/19/3 28/38/3 31/42/3
f 1/1/1 3/3/1 7/7/1 5/5/1
f 25/33/4 21/25/4 9/9/4 13/15/4
f 10/11/5 23/29/5 29/40/5 16/18/5
f 1/1/6 2/2/6 14/16/6 11/12/6
f 4/4/6 3/3/6 15/17/6 20/24/6
f 3/3/6 1/1/6 11/12/6 15/17/6
f 2/2/6 4/4/6 20/24/6 14/16/6
f 6/6/6 5/5/6 7/7/6 8/8/6
f 2/2/3 1/1/3 5/5/3 6/6/3
f 4/4/5 2/2/5 6/6/5 8/8/5
f 3/3/4 4/4/4 8/8/4 7/7/4
f 9/10/7 10/11/7 11/12/7
f 12/13/8 13/14/8 14/16/8
f 15/17/9 16/18/9 17/20/9
f 18/22/10 19/23/10 20/24/10
f 21/26/11 22/28/11 23/29/11
f 24/30/12 25/32/12 26/34/12
f 27/37/13 28/39/13 29/40/13
f 30/41/14 31/43/14 32/45/14
f 26/34/15 30/41/15 32/45/15 24/30/15
f 12/13/16 26/34/16 25/32/16 13/14/16
f 11/12/17 14/16/17 13/15/17 9/9/17
f 31/42/18 28/38/18 27/36/18 32/46/18
f 17/19/19 18/21/19 20/24/19 15/17/19
f 21/25/20 25/33/20 24/31/20 22/27/20
f 16/18/21 29/40/21 28/39/21 17/20/21
f 10/11/22 16/18/22 15/17/22 11/12/22
f 30/41/23 19/23/23 18/22/23 31/43/23
f 29/40/24 23/29/24 22/28/24 27/37/24
f 23/29/25 10/11/25 9/10/25 21/26/25
f 19/23/26 12/13/26 14/16/26 20/24/26
